# xmcd
#
# Track frame offsets: 
#        150
#        10972
#        23539
#        45142
#        56978
#        78007
#        93380
#        112152
#        124352
#        137046
#        146270
#        157799
#        167638
#        180354
#        191479
#        202189
#        214122
#        228124
#        244467
#        266801
#
# Disc length: 3715 seconds
#
# Revision: 0
# Processed by: cddbd v1.5.2PL0 Copyright (c) Steve Scherf et al.
# Submitted via: ExactAudioCopyFreeDBPlugin 1.0
#
DISCID=0d0e8114
DTITLE=Various Artist - 100 Hits - Country CD 5
DYEAR=2015
DGENRE=Country
TTITLE0=Jim Reeves - Welcome to my world
TTITLE1=Waylon Jennings - I'm a ramblin' man
TTITLE2=Merle Haggard - Pancho and Lefty
TTITLE3=Skeeter Davis - The end of the world
TTITLE4=Marty Robbins - El paso
TTITLE5=Melba Montgomery - No charge
TTITLE6=Charlie Landsborough - My forever friend
TTITLE7=Eddy Arnold - I'll hold you in my heart (till I can hold you i
TTITLE7=n my arms)
TTITLE8=Freddy Fender - Wasted days and wasted nights
TTITLE9=Chet Atkins - Yakety axe
TTITLE10=George Hamilton IV - She's a little bit country
TTITLE11=Jerry Reed - Are you from Dixie (cause I'm from Dixie too)
TTITLE12=Hank Snow - I'm moving on
TTITLE13=Hank Locklin - Send me the pillow you deram on
TTITLE14=Porter Wagoner - Green, green grass of home
TTITLE15=Willlie Nelson - Shotgun Willie
TTITLE16=Tom Paxton - The last thing on my mind
TTITLE17=Kris Kristofferson - The silver tongued devil and I
TTITLE18=Vern Gosdin - The first time ever I saw your face
TTITLE19=The Everly Brothers - I walk the line
EXTD=
EXTT0=
EXTT1=
EXTT2=
EXTT3=
EXTT4=
EXTT5=
EXTT6=
EXTT7=
EXTT8=
EXTT9=
EXTT10=
EXTT11=
EXTT12=
EXTT13=
EXTT14=
EXTT15=
EXTT16=
EXTT17=
EXTT18=
EXTT19=
PLAYORDER=
